<svg width="40" height="40" viewBox="0 0 40 40" fill="none" xmlns="http://www.w3.org/2000/svg">
<path d="M19.7917 0L19.6354 0.0520833L1.30208 4.11458L0 4.42708V35.5729L1.30208 35.8854L19.6354 39.9479L19.7917 40H23.3333V25H27.1354C27.6107 23.6719 28.4505 22.5326 29.5312 21.6667H23.3333V13.4896L27.3438 16.3542L28.4375 17.0833L29.4271 16.3021L36.6667 10.2604V20.4688C37.9948 20.944 39.1341 21.7839 40 22.8646V5H23.3333V0H19.7917ZM20 3.38542V36.6146L3.33333 32.9688V7.03125L20 3.38542ZM23.3333 8.33333H33.75L28.2812 12.8646L23.3333 9.375V8.33333ZM10.9896 11.6667C9.19271 11.6667 7.70833 12.4414 6.61458 14.0104C5.52083 15.5859 5 17.6628 5 20.2083C5 22.6172 5.54036 24.5898 6.61458 26.0938C7.6888 27.5977 9.07552 28.3333 10.7812 28.3333C12.5326 28.3333 13.9648 27.5391 15.0521 25.9896C16.1393 24.4401 16.6667 22.4284 16.6667 19.8958C16.6667 17.4284 16.1523 15.4102 15.1042 13.9062C14.056 12.4023 12.6888 11.6667 10.9896 11.6667ZM10.8854 15C11.6406 15 12.2201 15.4622 12.6562 16.3542C13.0924 17.2461 13.3333 18.4961 13.3333 20.1042C13.3333 21.6471 13.1055 22.832 12.6562 23.6979C12.207 24.5638 11.6016 25 10.8333 25C10.0911 25 9.47266 24.5378 9.01042 23.6458C8.54818 22.7539 8.33333 21.5365 8.33333 20C8.33333 18.4896 8.54818 17.2721 9.01042 16.3542C9.47266 15.4362 10.1042 15 10.8854 15ZM34.1667 21.6667C30.9505 21.6667 28.3333 24.2839 28.3333 27.5C28.3333 30.7161 30.9505 33.3333 34.1667 33.3333C37.3828 33.3333 40 30.7161 40 27.5C40 24.2839 37.3828 21.6667 34.1667 21.6667ZM33.3333 23.3333H35V26.6667H38.3333V28.3333H33.3333V23.3333Z" fill="black"/>
</svg>
